<svg width="202" height="906" xmlns="http://www.w3.org/2000/svg"><path d="M90.585 139.149c-14.593 0-25.571-5.639-32.934-16.915-7.363-11.277-11.045-28.789-11.045-52.536V.048H201.23v65.67c0 23.747-3.25 41.259-9.75 52.535-6.501 11.277-15.854 16.916-28.06 16.916-7.429 0-13.399-1.725-17.91-5.175-4.51-3.449-7.926-7.263-10.248-11.442-2.322-4.179-3.814-7.993-4.478-11.443l-.995-5.173-.895 5.87c-.597 3.914-2.189 8.159-4.776 12.736-2.587 4.577-6.5 8.822-11.741 12.736-5.24 3.914-12.504 5.87-21.79 5.87zm43.78-113.231v39.8c0 5.97.365 11.542 1.095 16.716.73 5.174 2.056 9.618 3.98 13.333 1.924 3.714 4.51 6.666 7.761 8.855 3.25 2.189 7.33 3.284 12.239 3.284 4.908 0 8.988-1.095 12.238-3.284s5.804-5.14 7.661-8.855c1.858-3.715 3.151-8.16 3.881-13.333.73-5.174 1.094-10.746 1.094-16.716v-39.8h-49.949zm-16.915 0H63.523v43.78c0 5.97.398 11.542 1.194 16.716.796 5.174 2.189 9.618 4.179 13.333 1.99 3.714 4.742 6.666 8.258 8.855 3.516 2.189 7.993 3.284 13.432 3.284 5.44 0 9.917-1.095 13.433-3.284s6.269-5.14 8.259-8.855c1.99-3.715 3.35-8.16 4.079-13.333.73-5.174 1.095-10.746 1.095-16.716v-43.78zM83.422 283.822l-6.168-1.891c-4.113-1.26-8.657-3.98-13.632-8.159s-9.519-10.182-13.631-18.01c-4.113-7.827-6.17-18.307-6.17-31.441 0-7.96 1.294-15.655 3.881-23.084 2.587-7.43 6.302-13.964 11.144-19.602 4.842-5.638 10.912-10.149 18.209-13.532 7.296-3.383 15.588-5.074 24.875-5.074 8.225 0 15.886 1.36 22.984 4.079 7.098 2.72 13.234 6.7 18.408 11.94 5.174 5.24 9.22 11.675 12.139 19.303 2.918 7.628 4.378 16.285 4.378 25.97 0 15.389-3.184 27.03-9.552 34.924-6.368 7.894-13.333 13.433-20.895 16.617-7.562 3.184-14.527 4.809-20.895 4.875l-9.552.1 1.99-92.336c-12.604.132-22.322 3.88-29.154 11.243-6.832 7.363-10.248 16.55-10.248 27.561 0 7.96 1.525 14.096 4.577 18.408 3.05 4.312 6.368 7.463 9.95 9.453 3.582 1.99 6.898 3.15 9.95 3.482l4.577.497-7.164 24.677zm30.647-28.258l4.378-.697c2.918-.464 6.135-1.758 9.651-3.88 3.516-2.123 6.733-5.373 9.652-9.751 2.918-4.378 4.378-10.481 4.378-18.308 0-9.154-2.654-16.584-7.96-22.288-5.307-5.705-12.338-9.42-21.094-11.144l.995 66.067zM73.074 408.197c-3.45-.133-6.236.497-8.358 1.89-2.123 1.393-3.184 3.682-3.184 6.865 0 2.388.53 4.478 1.592 6.269 1.06 1.791 2.189 3.284 3.383 4.478s2.321 2.056 3.382 2.587l1.593.796-17.712 4.776-1.592-1.493c-1.06-.995-2.188-2.52-3.382-4.577s-2.322-4.71-3.384-7.96c-1.06-3.25-1.592-7.197-1.592-11.84 0-3.052.432-6.07 1.294-9.055.862-2.985 2.288-5.638 4.279-7.96 1.99-2.322 4.61-4.179 7.86-5.572 3.25-1.393 7.33-2.09 12.239-2.09h18.904l-6.964-2.984c-4.644-1.99-9.752-5.009-15.324-9.055-5.572-4.046-10.68-9.154-15.323-15.323-4.643-6.169-6.965-13.366-6.965-21.591 0-8.093 2.355-14.56 7.065-19.403s10.447-7.263 17.213-7.263c4.644 0 9.586 1.16 14.826 3.482s10.248 6.335 15.024 12.04 9.055 13.465 12.836 23.283c3.781 9.817 6.534 22.089 8.258 36.815l3.583-.1c2.387-.066 5.04-.763 7.96-2.09 2.918-1.326 5.571-3.648 7.96-6.964s3.582-8.16 3.582-14.527c0-6.501-1.161-11.775-3.483-15.821-2.322-4.046-4.875-7.197-7.662-9.452-2.785-2.256-5.34-3.815-7.661-4.677l-3.482-1.293 7.164-24.676 5.174 2.388c3.449 1.592 7.197 4.444 11.243 8.557 4.046 4.112 7.794 9.75 11.244 16.915 3.449 7.164 5.174 16.251 5.174 27.263 0 8.225-1.062 15.422-3.184 21.591-2.123 6.169-4.975 11.277-8.557 15.323-3.582 4.046-7.828 7.031-12.736 8.955-4.91 1.924-10.216 2.82-15.92 2.687l-46.367-1.194zm0-73.232c-3.715 0-6.567.928-8.557 2.786-1.99 1.857-2.985 4.444-2.985 7.76 0 5.307 1.89 10.382 5.671 15.224a67.721 67.721 0 0013.034 12.736c4.91 3.648 9.785 6.567 14.627 8.756s8.325 3.217 10.447 3.085h6.966c-2.786-11.012-5.97-19.867-9.552-26.567s-7.131-11.807-10.647-15.323-6.965-5.804-10.348-6.865c-3.383-1.062-6.269-1.592-8.656-1.592zm9.75 173.926c0-3.582.133-6.965.399-10.15.265-3.183.663-6.168 1.194-8.954-.398-3.052-1.46-6.236-3.184-9.552-1.725-3.317-4.644-4.975-8.756-4.975-3.582 0-6.302 1.426-8.16 4.278-1.857 2.852-2.785 7.13-2.785 12.835v37.81c0 8.624-.863 15.788-2.587 21.493-1.725 5.704-3.947 10.248-6.667 13.631-2.72 3.383-5.87 5.771-9.452 7.164-3.582 1.393-7.23 2.09-10.945 2.09-9.818 0-17.546-4.61-23.184-13.831C3.059 551.51.24 536.618.24 516.055v-25.87c0-9.155.829-16.65 2.487-22.488 1.658-5.837 3.715-10.348 6.169-13.532 2.454-3.184 5.174-5.373 8.159-6.567 2.985-1.194 5.738-1.79 8.259-1.79 3.582 0 6.766.895 9.552 2.686 2.786 1.791 5.174 4.278 7.164 7.462 1.99 3.184 3.482 6.866 4.477 11.045.995 4.179 1.493 8.656 1.493 13.432l.398-4.776c.265-3.184 1.028-6.7 2.288-10.547 1.26-3.847 3.25-7.363 5.97-10.547 2.72-3.184 6.401-4.776 11.045-4.776 3.714 0 6.766 1.161 9.154 3.483s4.278 5.108 5.671 8.358c1.393 3.25 2.421 6.6 3.084 10.05s1.062 6.367 1.195 8.755c3.183-9.95 7.926-17.28 14.228-21.989 6.302-4.71 13.034-7.065 20.198-7.065 4.91 0 9.718 1.095 14.428 3.284s8.822 5.605 12.338 10.248c3.516 4.644 6.368 10.547 8.557 17.711 2.189 7.164 3.283 15.721 3.283 25.671 0 8.756-.829 16.451-2.487 23.084-1.658 6.634-3.947 12.206-6.866 16.716 8.491-4.776 15.323-5.174 20.497-1.194 5.174 3.98 6.9 12.935 5.174 26.865l-17.71 4.776c.928-5.306 1.094-9.784.497-13.432-.597-3.648-1.625-6.434-3.084-8.358-1.46-1.924-3.25-2.952-5.373-3.084-2.123-.133-4.246.596-6.368 2.188-3.317 3.184-6.932 5.54-10.846 7.065-3.914 1.526-7.927 2.288-12.04 2.288-4.908 0-9.684-1.094-14.327-3.283s-8.756-5.572-12.338-10.149c-3.582-4.577-6.435-10.414-8.557-17.512s-3.184-15.555-3.184-25.373zm38.408-32.04c-6.103 0-11.542 2.355-16.318 7.065-4.776 4.71-7.164 12.835-7.164 24.378 0 11.542 2.388 19.634 7.164 24.278s10.215 6.965 16.318 6.965c6.235 0 11.74-2.322 16.517-6.965s7.164-12.736 7.164-24.278c0-11.542-2.389-19.668-7.165-24.378-4.775-4.71-10.281-7.064-16.516-7.064zM44.02 528.394l2.587-33.83-.299-3.582c-.199-2.388-.83-5.042-1.89-7.96-1.062-2.92-2.786-5.572-5.174-7.96-2.388-2.388-5.705-3.582-9.95-3.582-6.236 0-10.614 2.885-13.134 8.656-2.521 5.771-3.781 16.086-3.781 30.945 0 13.134 1.26 22.719 3.78 28.755s6.9 9.055 13.135 9.055c4.112 0 7.462-1.526 10.049-4.577 2.587-3.052 4.146-8.358 4.677-15.92zm2.587 70.048H199.04c0 6.368.364 11.94 1.094 16.716l1.095 7.164H46.606v-23.88zm36.815 174.523l-6.17-1.891c-4.112-1.26-8.656-3.98-13.631-8.159s-9.519-10.182-13.631-18.01c-4.113-7.827-6.17-18.307-6.17-31.441 0-7.96 1.294-15.655 3.881-23.084 2.587-7.43 6.302-13.964 11.144-19.602 4.842-5.638 10.912-10.149 18.209-13.532 7.296-3.383 15.588-5.074 24.875-5.074 8.225 0 15.886 1.36 22.984 4.079 7.098 2.72 13.234 6.7 18.408 11.94 5.174 5.24 9.22 11.675 12.139 19.303 2.918 7.628 4.378 16.285 4.378 25.97 0 15.389-3.184 27.03-9.552 34.924-6.368 7.894-13.333 13.433-20.895 16.617-7.562 3.184-14.527 4.809-20.895 4.875l-9.552.1 1.99-92.336c-12.604.132-22.322 3.88-29.154 11.243-6.832 7.363-10.248 16.55-10.248 27.562 0 7.96 1.525 14.095 4.577 18.407 3.05 4.312 6.368 7.463 9.95 9.453 3.582 1.99 6.898 3.15 9.95 3.482l4.577.498-7.164 24.676zm30.646-28.258l4.378-.697c2.918-.464 6.135-1.758 9.651-3.88 3.516-2.123 6.733-5.373 9.652-9.751 2.918-4.378 4.378-10.481 4.378-18.308 0-9.154-2.654-16.584-7.96-22.288-5.307-5.705-12.338-9.42-21.094-11.144l.995 66.068zm5.373 130.145l3.582-.099c2.388-.066 4.975-.962 7.76-2.687 2.787-1.724 5.374-4.61 7.762-8.656s3.582-10.05 3.582-18.01c0-7.96-1.36-13.764-4.08-17.412-2.72-3.648-6.07-5.473-10.05-5.473-3.183 0-6.003 1.825-8.457 5.473s-4.345 9.253-5.671 16.815l-4.776 27.064c-2.123 12.338-5.97 21.061-11.542 26.169-5.572 5.108-11.94 7.661-19.104 7.661-5.307 0-10.116-1.293-14.428-3.88-4.312-2.587-7.96-6.07-10.945-10.448-2.985-4.378-5.273-9.585-6.865-15.621-1.592-6.036-2.388-12.438-2.388-19.203 0-14.461 2.056-25.937 6.169-34.427s8.656-14.892 13.631-19.204c4.975-4.312 9.519-7.064 13.632-8.258l6.169-1.791 7.164 24.675-4.577.1c-3.052.066-6.368 1.227-9.95 3.482-3.582 2.256-6.9 6.103-9.95 11.542-3.052 5.44-4.577 13.466-4.577 24.08 0 7.429 1.459 13.2 4.378 17.312 2.918 4.113 6.434 6.17 10.547 6.17 3.714 0 6.931-1.659 9.651-4.976 2.72-3.316 4.876-9.353 6.468-18.109l4.378-24.278c2.122-12.338 5.97-21.06 11.542-26.168 5.572-5.108 11.674-7.662 18.308-7.662 5.174 0 9.817 1.228 13.93 3.682s7.595 5.771 10.447 9.95c2.852 4.179 5.008 9.12 6.468 14.825 1.459 5.705 2.189 11.808 2.189 18.308 0 12.604-1.725 22.52-5.174 29.751-3.45 7.23-7.264 12.603-11.443 16.119-4.179 3.516-7.993 5.705-11.443 6.567l-5.173 1.293-7.165-24.676z" fill="#f5d2d2" fill-rule="evenodd"/></svg>