<svg width="69" height="69" xmlns="http://www.w3.org/2000/svg"><g fill="#F5D2D2" fill-rule="evenodd"><path d="M60 35H36.5v4H60c.27 0 .51.11.7.29.19.2.3.44.3.71v24c0 .27-.11.51-.3.71-.19.18-.43.29-.7.29H36.17a7.488 7.488 0 01-2.95 4H60a5.015 5.015 0 005-5V40a5.015 5.015 0 00-5-5z"/><path d="M58.81 41H36.33v21.81l-.01.19h22.49V41zM34.36 8.35a5.015 5.015 0 00-5-5h-24a5.015 5.015 0 00-5 5v54.8a5.015 5.015 0 005 5h24a5.015 5.015 0 005-5V8.35zm-4.29 55.51c-.19.19-.43.29-.7.3h-24c-.27 0-.51-.11-.7-.3-.19-.19-.29-.43-.3-.7V8.36c0-.27.11-.51.3-.71.19-.19.43-.29.7-.29h24c.27 0 .51.11.7.29.19.19.29.43.3.71v54.8c-.01.27-.12.51-.3.7z" fill-rule="nonzero"/><path d="M6.36 9.54h22v44h-22z"/><circle cx="17.36" cy="58.54" r="3"/><path d="M44.99 9.98c-.45-.43-.58-.51-.84-.73 4.12.5 7.81 2.37 10.6 5.16 2.8 2.8 4.67 6.51 5.16 10.66-.19-.21-.35-.39-.74-.78-1.42-1.46-3.9.15-3.9.15l6.89 7.12 6.33-7.63s-2.59-1.41-3.9.15c-.39.46-.47.6-.65.85C62.87 14.57 54.66 6.34 44.3 5.24c.21-.17.4-.32.8-.67 1.53-1.34.08-3.9.08-3.9l-7.51 6.47 7.26 6.75c-.01-.01 1.54-2.52.06-3.91z"/></g></svg>