<?xml version="1.0" encoding="UTF-8"?>
<svg width="69px" height="69px" viewBox="0 0 69 69" version="1.1" xmlns="http://www.w3.org/2000/svg" xmlns:xlink="http://www.w3.org/1999/xlink">
    <!-- Generator: Sketch 52.2 (67145) - http://www.bohemiancoding.com/sketch -->
    <title>rotate_device</title>
    <desc>Created with Sketch.</desc>
    <g id="Sprint" stroke="none" stroke-width="1" fill="none" fill-rule="evenodd">
        <g id="rotate_device" fill="#F5D2D2">
            <path d="M60,35 L36.5,35 L36.5,39 L60,39 C60.27,39 60.51,39.11 60.7,39.29 C60.89,39.49 61,39.73 61,40 L61,64 C61,64.27 60.89,64.51 60.7,64.71 C60.51,64.89 60.27,65 60,65 L36.17,65 C35.6707509,66.6303085 34.6300601,68.0414146 33.22,69 L60,69 C62.7580047,68.991763 64.991763,66.7580047 65,64 L65,40 C64.991763,37.2419953 62.7580047,35.008237 60,35 Z" id="Path"></path>
            <path d="M58.81,41 L36.33,41 L36.33,62.81 L36.32,63 L58.81,63 L58.81,41 Z M34.36,8.35 C34.351763,5.59199533 32.1180047,3.358237 29.36,3.35 L5.36,3.35 C2.60199533,3.358237 0.368237003,5.59199533 0.36,8.35 L0.36,63.15 C0.368237003,65.9080047 2.60199533,68.141763 5.36,68.15 L29.36,68.15 C32.1180047,68.141763 34.351763,65.9080047 34.36,63.15 L34.36,8.35 Z M30.07,63.86 C29.88,64.05 29.64,64.15 29.37,64.16 L5.37,64.16 C5.1,64.16 4.86,64.05 4.67,63.86 C4.48,63.67 4.38,63.43 4.37,63.16 L4.37,8.36 C4.37,8.09 4.48,7.85 4.67,7.65 C4.86,7.46 5.1,7.36 5.37,7.36 L29.37,7.36 C29.64,7.36 29.88,7.47 30.07,7.65 C30.26,7.84 30.36,8.08 30.37,8.36 L30.37,63.16 C30.36,63.43 30.25,63.67 30.07,63.86 Z" id="Shape" fill-rule="nonzero"></path>
            <polygon id="Path" points="6.36 9.54 28.36 9.54 28.36 53.54 6.36 53.54"></polygon>
            <circle id="Oval" cx="17.36" cy="58.54" r="3"></circle>
            <path d="M44.99,9.98 C44.54,9.55 44.41,9.47 44.15,9.25 C48.27,9.75 51.96,11.62 54.75,14.41 C57.55,17.21 59.42,20.92 59.91,25.07 C59.72,24.86 59.56,24.68 59.17,24.29 C57.75,22.83 55.27,24.44 55.27,24.44 L62.16,31.56 L68.49,23.93 C68.49,23.93 65.9,22.52 64.59,24.08 C64.2,24.54 64.12,24.68 63.94,24.93 C62.87,14.57 54.66,6.34 44.3,5.24 C44.51,5.07 44.7,4.92 45.1,4.57 C46.63,3.23 45.18,0.67 45.18,0.67 L37.67,7.14 L44.93,13.89 C44.92,13.88 46.47,11.37 44.99,9.98 Z" id="Path"></path>
        </g>
    </g>
</svg>